#!OML:ASF I:\Actors\actors\Patient Classification 1\Patient 1\Session 1\Subject1.ASF
:FULLY-SPECIFIED
:DEGREES
471
root 1.19331 17.5499 8.09913 7.00738 -24.9665 -6.58808
lowerback 0.0400536 -2.82647 6.61808
upperback -5.97196 -3.33817 5.80812
thorax -6.30821 -1.8609 2.5822
lowerneck -9.3371 -5.74181 -5.11645
upperneck 37.0668 -12.3754 10.3431
head 15.7138 -4.95204 3.25595
rclavicle 3.02153e-014 3.18055e-015
rhumerus 33.2145 47.9013 -66.1841
rradius 142.365
rwrist -52.623
rhand -4.06889 -57.288
rfingers 7.12502
rthumb 21.6878 273.907
lclavicle 3.02153e-014 3.18055e-015
lhumerus 17.524 -12.0063 55.2439
lradius 31.8407
lwrist -53.8705
lhand -57.5333 -69.0888
lfingers 7.12502
lthumb -29.8006 -41.4656
rfemur -10.5643 27.0058 20.1893
rtibia 9.14849
rfoot -8.99566 -2.9564
rtoes -9.28197
lfemur 4.4448 -18.8094 -15.4194
ltibia 2.79119
lfoot -22.6613 45.1061
ltoes 16.2947
472
root 1.18858 17.5553 8.10204 7.05748 -24.7178 -6.53682
lowerback 0.182106 -2.8464 6.42967
upperback -6.12162 -3.34538 5.8042
thorax -6.53836 -1.85861 2.70105
lowerneck -9.25142 -5.72947 -5.16279
upperneck 37.0845 -12.3388 10.3262
head 15.699 -4.94786 3.26671
rclavicle 2.20651e-014 3.81667e-014
rhumerus 33.1247 47.9964 -66.1477
rradius 142.41
rwrist -52.5026
rhand -4.36344 -57.5306
rfingers 7.12502
rthumb 21.4049 273.632
lclavicle 2.20651e-014 3.81667e-014
lhumerus 17.2612 -11.7766 55.4441
lradius 31.6394
lwrist -54.2184
lhand -57.9278 -69.0523
lfingers 7.12502
lthumb -30.177 -41.4972
rfemur -10.5816 27.0798 20.1152
rtibia 9.11926
rfoot -9.00554 -3.25399
rtoes -9.19245
lfemur 4.39545 -19.1004 -15.4679
ltibia 2.69797
lfoot -22.6867 45.1687
ltoes 16.2913
473
root 1.1833 17.5586 8.10275 7.14024 -24.2639 -6.75207
lowerback 0.151328 -2.92549 6.50787
upperback -6.10322 -3.45067 5.84162
thorax -6.50496 -1.913 2.70117
lowerneck -9.23606 -5.7503 -5.06319
upperneck 37.0259 -12.3155 10.175
head 15.6387 -4.94255 3.18565
rclavicle 2.44505e-014 5.56597e-014
rhumerus 33.2595 47.9346 -65.939
rradius 142.441
rwrist -52.3696
rhand -4.63168 -57.8882
rfingers 7.12502
rthumb 21.1473 273.245
lclavicle 2.44505e-014 5.56597e-014
lhumerus 17.3074 -11.4131 55.4836
lradius 31.3192
lwrist -54.7269
lhand -57.6188 -71.8572
lfingers 7.12502
lthumb -29.8822 -44.2487
rfemur -10.4421 27.1927 20.3741
rtibia 9.03155
rfoot -9.02141 -3.73547
rtoes -8.63868
lfemur 4.34957 -19.3965 -15.1727
ltibia 2.64224
lfoot -22.6297 45.0703
ltoes 16.059
474
root 1.17945 17.5593 8.09996 7.17627 -23.6707 -7.02515
lowerback 0.235332 -3.0702 6.62673
upperback -6.07195 -3.62861 5.92853
thorax -6.52496 -2.0041 2.74328
lowerneck -9.25381 -5.74009 -5.10678
upperneck 37.0342 -12.2754 10.1564
head 15.6434 -4.93161 3.19228
rclavicle 2.98177e-015 8.26944e-014
rhumerus 33.3971 47.8767 -65.7156
rradius 142.425
rwrist -52.3637
rhand -4.57096 -57.8416
rfingers 7.12502
rthumb 21.2056 273.298
lclavicle 2.98177e-015 8.26944e-014
lhumerus 17.283 -11.1267 55.44
lradius 31.2221
lwrist -54.9999
lhand -57.035 -70.9628
lfingers 7.12502
lthumb -29.3249 -43.2554
rfemur -10.2263 27.1423 20.7323
rtibia 8.95019
rfoot -9.03475 -4.17639
rtoes -8.21967
lfemur 4.30257 -19.7237 -14.7982
ltibia 2.62513
lfoot -22.4027 44.9316
ltoes 15.5357
475
root 1.17559 17.5573 8.09556 7.16313 -23.0926 -7.29257
lowerback 0.400969 -3.21201 6.68744
upperback -6.02115 -3.79593 6.04593
thorax -6.56479 -2.08577 2.85382
lowerneck -9.21165 -5.71933 -5.21096
upperneck 36.9614 -12.2119 10.1966
head 15.5998 -4.91576 3.23847
rclavicle 6.30147e-014 -2.06736e-014
rhumerus 33.5952 47.797 -65.4262
rradius 142.384
rwrist -52.5243
rhand -4.43314 -57.4754
rfingers 7.12502
rthumb 21.338 273.679
lclavicle 6.30147e-014 -2.06736e-014
lhumerus 17.1719 -11.025 55.3437
lradius 31.5806
lwrist -54.7492
lhand -56.091 -66.5043
lfingers 7.12502
lthumb -28.4232 -38.6428
rfemur -10.0039 26.9602 21.1061
rtibia 8.91096
rfoot -9.03297 -4.48329
rtoes -7.96463
lfemur 4.3207 -20.0662 -14.4515
ltibia 2.56089
lfoot -22.0877 44.8864
ltoes 14.9434
476
root 1.17189 17.5555 8.09098 7.14415 -22.577 -7.48633
lowerback 0.606024 -3.32297 6.68759
upperback -5.97857 -3.92126 6.11206
thorax -6.63415 -2.14505 2.94479
lowerneck -9.1314 -5.7177 -5.19514
upperneck 36.7928 -12.1775 10.2054
head 15.4901 -4.90259 3.24222
rclavicle -1.0138e-014 6.67916e-014
rhumerus 33.7755 47.6748 -65.1818
rradius 142.34
rwrist -52.602
rhand -4.45276 -57.3144
rfingers 7.12502
rthumb 21.3191 273.838
lclavicle -1.0138e-014 6.67916e-014
lhumerus 17.0001 -11.4546 54.9656
lradius 32.5729
lwrist -53.6666
lhand -54.5989 -58.6328
lfingers 7.12502
lthumb -26.9964 -30.5419
rfemur -9.85371 26.7629 21.3817
rtibia 8.91203
rfoot -9.04143 -4.76672
rtoes -7.98048
lfemur 4.28121 -20.3042 -14.1633
ltibia 2.5499
lfoot -21.691 44.8296
ltoes 14.1493
477
root 1.16865 17.5566 8.0862 7.13074 -22.1315 -7.54021
lowerback 0.800412 -3.40789 6.59207
upperback -5.94643 -4.01885 6.11607
thorax -6.70442 -2.18731 3.02082
lowerneck -9.07294 -5.71255 -5.16696
upperneck 36.6334 -12.1603 10.2593
head 15.3968 -4.8887 3.26001
rclavicle 5.30755e-014 -1.90833e-014
rhumerus 33.9088 47.5321 -65.0337
rradius 142.308
rwrist -52.5677
rhand -4.55132 -57.4827
rfingers 7.12502
rthumb 21.2245 273.659
lclavicle 5.30755e-014 -1.90833e-014
lhumerus 16.6799 -12.3531 54.3411
lradius 34.3896
lwrist -52.0854
lhand -56.3796 -64.7539
lfingers 7.12502
lthumb -28.699 -36.9388
rfemur -9.81147 26.5338 21.4637
rtibia 8.94134
rfoot -9.06107 -4.97779
rtoes -8.26109
lfemur 4.12257 -20.5055 -14.0094
ltibia 2.65249
lfoot -21.3578 44.749
ltoes 13.47
478
root 1.16445 17.5609 8.08366 7.17391 -21.8231 -7.51594
lowerback 0.861735 -3.40807 6.46078
upperback -5.90142 -4.02176 6.08959
thorax -6.68236 -2.18126 3.06589
lowerneck -9.03476 -5.75319 -5.22777
upperneck 36.4794 -12.1993 10.3339
head 15.3274 -4.90687 3.29244
rclavicle -9.34288e-015 1.11319e-014
rhumerus 33.9842 47.3112 -64.8726
rradius 142.298
rwrist -52.5868
rhand -4.67512 -57.6723
rfingers 7.12502
rthumb 21.1055 273.456
lclavicle -9.34288e-015 1.11319e-014
lhumerus 16.2395 -13.3656 53.8156
lradius 37.0571
lwrist -50.531
lhand -56.5884 -67.9406
lfingers 7.12502
lthumb -28.8984 -40.1594
rfemur -9.88521 26.3548 21.4047
rtibia 8.9605
rfoot -9.04236 -5.05894
rtoes -8.08444
lfemur 3.88515 -20.5774 -13.9105
ltibia 2.77827
lfoot -21.2259 44.5918
ltoes 13.4793
479
root 1.16024 17.5659 8.08537 7.29679 -21.6694 -7.51012
lowerback 0.868096 -3.31666 6.39421
upperback -5.90255 -3.90183 6.06573
thorax -6.68342 -2.11889 3.06879
lowerneck -8.97296 -5.84828 -5.34904
upperneck 36.3878 -12.2934 10.3398
head 15.2885 -4.9646 3.29946
rclavicle 3.47873e-014 -3.18055e-014
rhumerus 33.8969 47.107 -64.7956
rradius 142.307
rwrist -52.6323
rhand -4.72041 -57.5986
rfingers 7.12502
rthumb 21.062 273.525
lclavicle 3.47873e-014 -3.18055e-014
lhumerus 15.5498 -14.312 53.5721
lradius 40.4961
lwrist -49.0915
lhand -56.4514 -69.883
lfingers 7.12502
lthumb -28.7676 -42.0795
rfemur -10.0356 26.2897 21.3349
rtibia 8.97387
rfoot -8.98776 -5.12041
rtoes -7.88486
lfemur 3.66592 -20.5765 -13.8113
ltibia 2.83626
lfoot -21.1485 44.4916
ltoes 13.5644
480
root 1.15637 17.5698 8.09064 7.45858 -21.6465 -7.5409
lowerback 1.00185 -3.15907 6.42278
upperback -6.04 -3.66603 6.02973
thorax -6.9139 -2.00777 3.01816
lowerneck -8.8044 -5.93836 -5.47351
upperneck 36.4423 -12.3904 10.2874
head 15.2922 -5.03369 3.29005
rclavicle -6.36111e-015 -1.27222e-014
rhumerus 33.4851 46.9595 -64.9878
rradius 142.381
rwrist -52.6544
rhand -4.68266 -57.5511
rfingers 7.12502
rthumb 21.0983 273.577
lclavicle -6.36111e-015 -1.27222e-014
lhumerus 14.5183 -15.1684 53.6601
lradius 44.2779
lwrist -47.8722
lhand -56.4527 -71.4585
lfingers 7.12502
lthumb -28.7688 -43.6552
rfemur -10.1928 26.3216 21.3141
rtibia 8.98335
rfoot -8.92374 -5.21072
rtoes -7.97018
lfemur 3.56074 -20.7272 -13.7629
ltibia 2.78154
lfoot -21.0559 44.6682
ltoes 13.3317
481
root 1.15288 17.5732 8.09959 7.57277 -21.7259 -7.55025
lowerback 1.02822 -2.96907 6.46039
upperback -6.12308 -3.40268 5.97576
thorax -7.0246 -1.88302 2.92839
lowerneck -8.64594 -5.98008 -5.5956
upperneck 36.5375 -12.4507 10.3101
head 15.3218 -5.07666 3.32022
rclavicle -1.53064e-014 3.97569e-014
rhumerus 33.1263 46.7812 -65.1765
rradius 142.465
rwrist -52.7178
rhand -4.763 -57.7785
rfingers 7.12502
rthumb 21.0211 273.341
lclavicle -1.53064e-014 3.97569e-014
lhumerus 13.6247 -15.4829 54.1978
lradius 47.4537
lwrist -46.9645
lhand -56.5936 -72.3839
lfingers 7.12502
lthumb -28.9033 -44.6036
rfemur -10.2631 26.4113 21.3019
rtibia 8.94951
rfoot -8.86514 -5.24854
rtoes -7.67069
lfemur 3.61749 -20.9313 -13.821
ltibia 2.62245
lfoot -20.9728 44.9694
ltoes 13.1697
482
root 1.15105 17.5752 8.11152 7.62478 -21.8323 -7.55654
lowerback 0.798979 -2.7922 6.47361
upperback -6.0097 -3.19798 5.97258
thorax -6.76938 -1.77963 2.87871
lowerneck -8.6402 -5.96766 -5.68468
upperneck 36.5385 -12.4157 10.354
head 15.3278 -5.06539 3.3621
rclavicle -1.61016e-014 -1.59028e-014
rhumerus 33.2305 46.7804 -65.1369
rradius 142.409
rwrist -52.602
rhand -4.81292 -57.7793
rfingers 7.12502
rthumb 20.9731 273.335
lclavicle -1.61016e-014 -1.59028e-014
lhumerus 13.2129 -14.8518 55.2498
lradius 49.3237
lwrist -46.258
lhand -57.0786 -76.3661
lfingers 7.12502
lthumb -29.3665 -48.666
rfemur -10.232 26.5009 21.3193
rtibia 8.88584
rfoot -8.82055 -5.24039
rtoes -7.2739
lfemur 3.78203 -21.1162 -13.9288
ltibia 2.43261
lfoot -21.0199 45.1974
ltoes 13.3942
483
root 1.15209 17.5749 8.12222 7.65136 -21.8726 -7.57185
lowerback 0.633394 -2.62225 6.5762
upperback -5.92641 -2.98955 5.97377
thorax -6.58953 -1.67947 2.79271
lowerneck -8.64637 -5.95242 -5.71843
upperneck 36.5104 -12.3495 10.3168
head 15.3052 -5.04225 3.36318
rclavicle -5.4964e-014 2.70347e-014
rhumerus 33.3711 47.0614 -65.1582
rradius 142.244
rwrist -52.1693
rhand -4.74713 -57.5256
rfingers 7.12502
rthumb 21.0364 273.595
lclavicle -5.4964e-014 2.70347e-014
lhumerus 13.3607 -13.6973 56.5948
lradius 49.5052
lwrist -46.2126
lhand -58.3124 -76.522
lfingers 7.12502
lthumb -30.5438 -49.0346
rfemur -10.1728 26.5514 21.3531
rtibia 8.82533
rfoot -8.77366 -5.24411
rtoes -7.18234
lfemur 3.90392 -21.2648 -14.0028
ltibia 2.30811
lfoot -21.0755 45.29
ltoes 13.6738
484
root 1.15481 17.5733 8.12838 7.6266 -21.7914 -7.54824
lowerback 0.55952 -2.46088 6.75828
upperback -5.90842 -2.7771 5.90922
thorax -6.54034 -1.5847 2.60452
lowerneck -8.634 -5.97094 -5.66702
upperneck 36.5144 -12.338 10.2155
head 15.2885 -5.03874 3.31384
rclavicle -7.95139e-015 -3.81667e-014
rhumerus 33.3766 47.2332 -65.3423
rradius 142.116
rwrist -51.9044
rhand -4.82218 -57.545
rfingers 7.12502
rthumb 20.9643 273.568
lclavicle -7.95139e-015 -3.81667e-014
lhumerus 14.4364 -12.4145 58.0136
lradius 47.1457
lwrist -45.1591
lhand -58.1972 -74.7147
lfingers 7.12502
lthumb -30.434 -47.2069
rfemur -10.0821 26.533 21.3518
rtibia 8.76089
rfoot -8.74145 -5.30452
rtoes -7.14822
lfemur 3.94846 -21.3432 -14.0631
ltibia 2.27964
lfoot -21.0677 45.2384
ltoes 13.7591
